<svg xmlns="http://www.w3.org/2000/svg" viewBox="0 0 172.5 91.8"><path fill="#fff" fill-rule="evenodd" d="M169.2 7.0Q167.3 3.2 166.8 2.6Q166.2 2.0 165.5 1.7Q164.8 1.3 163.2 1.3Q161.7 1.3 158.0 2.8Q154.3 4.2 151.0 5.0Q147.7 5.8 146.8 6.6Q146.0 7.3 143.1 8.5Q140.2 9.7 137.1 10.5Q134.0 11.3 123.6 11.4Q113.2 11.5 112.6 12.0Q112.0 12.5 111.2 12.5Q110.5 12.5 109.9 12.0Q109.3 11.5 107.7 11.4Q106.0 11.3 96.9 9.3Q87.8 7.3 87.2 6.8Q86.5 6.3 81.0 6.4Q75.5 6.5 69.2 7.0Q62.8 7.5 60.0 7.8Q57.2 8.2 52.5 9.3Q47.8 10.5 46.8 11.4Q45.7 12.3 45.2 14.0Q44.7 15.7 44.0 16.5Q43.3 17.3 41.5 18.4Q39.7 19.5 37.6 20.3Q35.5 21.2 34.3 22.2Q33.2 23.3 31.2 27.5Q29.3 31.7 23.8 45.3Q18.3 59.0 18.3 60.6Q18.3 62.2 18.9 63.9Q19.5 65.7 19.3 66.8Q19.2 67.8 17.7 69.3Q16.2 70.8 9.2 76.7Q2.3 82.5 1.8 83.4Q1.3 84.3 1.4 86.0Q1.5 87.7 2.2 88.5Q2.8 89.3 3.8 89.8Q4.8 90.3 6.5 90.3Q8.2 90.3 16.5 89.1Q24.8 87.8 28.8 87.4Q32.7 87.0 35.8 87.0Q39.0 87.0 40.9 87.2Q42.8 87.3 46.2 88.1Q49.5 88.8 51.8 89.2Q54.2 89.5 55.2 89.5Q56.2 89.5 57.1 89.2Q58.0 89.0 58.6 88.7Q59.2 88.3 60.3 87.0Q61.5 85.7 62.5 83.5Q63.5 81.3 64.4 78.8Q65.3 76.2 65.3 72.3Q65.3 68.5 63.7 61.4Q62.0 54.3 62.0 53.4Q62.0 52.5 63.3 50.4Q64.7 48.3 65.6 47.2Q66.5 46.2 67.2 46.1Q67.8 46.0 68.6 46.4Q69.3 46.8 70.7 47.2Q72.0 47.7 91.2 47.4Q110.5 47.2 110.9 47.2Q111.3 47.3 112.4 48.2Q113.5 49.2 114.2 49.2Q114.8 49.2 120.7 47.2Q126.5 45.3 130.0 43.7Q133.5 42.0 136.2 40.2Q138.8 38.3 141.4 36.1Q144.0 33.8 147.0 30.7Q150.0 27.5 153.2 24.5Q156.3 21.5 158.0 20.6Q159.7 19.7 164.3 17.7Q169.0 15.7 170.0 14.5Q171.0 13.3 171.0 12.1Q171.0 10.8 169.2 7.0ZM166.5 8.1Q168.0 11.2 168.0 11.8Q168.0 12.3 167.7 12.8Q167.3 13.3 162.9 15.2Q158.5 17.0 156.0 18.5Q153.5 20.0 147.1 26.5Q140.7 33.0 138.9 34.5Q137.2 36.0 134.2 38.0Q131.2 40.0 128.2 41.3Q125.3 42.7 120.6 44.2Q115.8 45.8 115.1 45.8Q114.3 45.8 113.2 45.1Q112.2 44.3 92.0 44.5Q71.8 44.7 70.1 43.8Q68.3 43.0 67.2 43.0Q66.2 43.0 65.7 43.2Q65.2 43.3 64.3 44.2Q63.5 45.0 61.7 47.7Q59.8 50.3 59.4 51.5Q59.0 52.7 59.3 55.0Q59.7 57.3 60.9 62.2Q62.2 67.2 62.4 69.2Q62.7 71.2 62.7 72.7Q62.7 74.2 62.2 75.9Q61.8 77.7 60.8 80.1Q59.8 82.5 59.2 83.8Q58.5 85.0 57.7 85.7Q56.8 86.3 54.5 86.3Q52.2 86.3 47.8 85.4Q43.5 84.5 41.8 84.3Q40.2 84.2 35.8 84.2Q31.5 84.2 29.7 84.3Q27.8 84.5 17.7 86.0Q7.5 87.5 6.2 87.4Q5.0 87.3 4.6 86.8Q4.2 86.3 4.2 85.7Q4.2 85.0 4.8 84.3Q5.3 83.7 12.2 77.9Q19.0 72.2 20.2 70.8Q21.5 69.5 21.8 68.8Q22.2 68.2 22.3 67.0Q22.5 65.8 21.8 63.7Q21.2 61.5 21.2 60.6Q21.2 59.7 27.7 43.7Q34.2 27.7 34.8 26.5Q35.3 25.3 35.9 24.7Q36.5 24.0 39.2 22.8Q41.8 21.7 43.8 20.4Q45.7 19.2 46.5 18.0Q47.3 16.8 47.8 15.3Q48.2 13.8 48.6 13.5Q49.0 13.2 54.0 12.0Q59.0 10.8 65.4 10.2Q71.8 9.7 76.4 9.5Q81.0 9.3 83.7 9.6Q86.3 9.8 93.8 11.6Q101.2 13.3 103.9 13.8Q106.7 14.3 107.9 14.3Q109.2 14.3 110.0 13.8Q110.8 13.2 111.2 13.2Q111.7 13.2 112.5 13.8Q113.3 14.3 124.0 14.2Q134.7 14.2 137.8 13.3Q140.8 12.5 149.5 9.1Q158.2 5.7 160.7 4.8Q163.2 4.0 163.8 4.2Q164.3 4.3 164.7 4.7Q165.0 5.0 166.5 8.1Z"/></svg>